<?xml version="1.0" encoding="UTF-8"?>
<svg id="Layer_1" xmlns="http://www.w3.org/2000/svg" version="1.1" viewBox="0 0 1080 1080">
  <defs>
    <style>
      .st0 { fill: #f0f8f8; }
      .st1 { fill: #f8d0e0; }
      .st2 { fill: #b8b8a0; }
      .st3 { fill: #484038; }
      .st4 { fill: #f8b0c8; }
      .st5 { fill: #e0e0c8; }
      .st6 { fill: #f888c0; }
      .st7 { fill: #c070a0; }
      .st8 { fill: #686058; }
      .st9 { fill: #888078; }
    </style>
  </defs>
  <rect class="st3" x="631.5" y="936.4" width="61" height="61"/>
  <rect class="st3" x="570.5" y="936.4" width="61" height="61"/>
  <rect class="st3" x="509.5" y="936.4" width="61" height="61"/>
  <rect class="st3" x="448.5" y="936.4" width="61" height="61"/>
  <rect class="st3" x="387.5" y="936.4" width="61" height="61"/>
  <rect class="st3" x="753.5" y="875.5" width="61" height="61"/>
  <rect class="st3" x="692.5" y="875.5" width="61" height="61"/>
  <rect class="st2" x="631.5" y="875.5" width="61" height="61"/>
  <rect class="st2" x="570.5" y="875.5" width="61" height="61"/>
  <rect class="st2" x="509.5" y="875.5" width="61" height="61"/>
  <rect class="st2" x="448.5" y="875.5" width="61" height="61"/>
  <rect class="st2" x="387.5" y="875.5" width="61" height="61"/>
  <rect class="st3" x="326.5" y="875.5" width="61" height="61"/>
  <rect class="st3" x="265.5" y="875.5" width="61" height="61"/>
  <rect class="st3" x="814.5" y="814.5" width="61" height="61"/>
  <rect class="st2" x="753.5" y="814.5" width="61" height="61"/>
  <rect class="st2" x="692.5" y="814.5" width="61" height="61"/>
  <rect class="st2" x="631.5" y="814.5" width="61" height="61"/>
  <rect class="st2" x="570.5" y="814.5" width="61" height="61"/>
  <rect class="st5" x="509.5" y="814.5" width="61" height="61"/>
  <rect class="st5" x="448.5" y="814.5" width="61" height="61"/>
  <rect class="st5" x="387.5" y="814.5" width="61" height="61"/>
  <rect class="st5" x="326.5" y="814.5" width="61" height="61"/>
  <rect class="st2" x="265.5" y="814.5" width="61" height="61"/>
  <rect class="st3" x="204.5" y="814.5" width="61" height="61"/>
  <rect class="st3" x="875.5" y="753.5" width="61" height="61"/>
  <rect class="st2" x="814.5" y="753.5" width="61" height="61"/>
  <rect class="st2" x="753.5" y="753.5" width="61" height="61"/>
  <rect class="st2" x="692.5" y="753.5" width="61" height="61"/>
  <rect class="st5" x="631.5" y="753.5" width="61" height="61"/>
  <rect class="st5" x="570.5" y="753.5" width="61" height="61"/>
  <rect class="st5" x="509.5" y="753.5" width="61" height="61"/>
  <rect class="st8" x="448.5" y="753.5" width="61" height="61"/>
  <rect class="st8" x="387.5" y="753.5" width="61" height="61"/>
  <rect class="st9" x="326.5" y="753.5" width="61" height="61"/>
  <rect class="st0" x="265.5" y="753.5" width="61" height="61"/>
  <rect class="st2" x="204.5" y="753.5" width="61" height="61"/>
  <rect class="st3" x="143.6" y="753.5" width="61" height="61"/>
  <rect class="st3" x="875.5" y="692.5" width="61" height="61"/>
  <rect class="st2" x="814.5" y="692.5" width="61" height="61"/>
  <rect class="st5" x="753.5" y="692.5" width="61" height="61"/>
  <rect class="st9" x="692.5" y="692.5" width="61" height="61"/>
  <rect class="st8" x="631.5" y="692.5" width="61" height="61"/>
  <rect class="st8" x="570.5" y="692.5" width="61" height="61"/>
  <rect class="st8" x="509.5" y="692.5" width="61" height="61"/>
  <rect class="st2" x="448.5" y="692.5" width="61" height="61"/>
  <rect class="st0" x="387.5" y="692.5" width="61" height="61"/>
  <rect class="st2" x="326.5" y="692.5" width="61" height="61"/>
  <rect class="st9" x="265.5" y="692.5" width="61" height="61"/>
  <rect class="st5" x="204.5" y="692.5" width="61" height="61"/>
  <rect class="st3" x="143.6" y="692.5" width="61" height="61"/>
  <rect class="st3" x="936.4" y="631.5" width="61" height="61"/>
  <rect class="st9" x="875.5" y="631.5" width="61" height="61"/>
  <rect class="st8" x="814.5" y="631.5" width="61" height="61"/>
  <rect class="st8" x="753.5" y="631.5" width="61" height="61"/>
  <rect class="st8" x="692.5" y="631.5" width="61" height="61"/>
  <rect class="st8" x="631.5" y="631.5" width="61" height="61"/>
  <rect class="st8" x="570.5" y="631.5" width="61" height="61"/>
  <rect class="st8" x="509.5" y="631.5" width="61" height="61"/>
  <rect class="st0" x="448.5" y="631.5" width="61" height="61"/>
  <rect class="st0" x="387.5" y="631.5" width="61" height="61"/>
  <rect class="st0" x="326.5" y="631.5" width="61" height="61"/>
  <rect class="st8" x="265.5" y="631.5" width="61" height="61"/>
  <rect class="st8" x="204.5" y="631.5" width="61" height="61"/>
  <rect class="st5" x="143.6" y="631.5" width="61" height="61"/>
  <rect class="st3" x="82.6" y="631.5" width="61" height="61"/>
  <rect class="st3" x="936.4" y="570.5" width="61" height="61"/>
  <rect class="st8" x="875.5" y="570.5" width="61" height="61"/>
  <rect class="st8" x="814.5" y="570.5" width="61" height="61"/>
  <rect class="st8" x="753.5" y="570.5" width="61" height="61"/>
  <rect class="st7" x="692.5" y="570.5" width="61" height="61"/>
  <rect class="st7" x="631.5" y="570.5" width="61" height="61"/>
  <rect class="st7" x="570.5" y="570.5" width="61" height="61"/>
  <rect class="st8" x="509.5" y="570.5" width="61" height="61"/>
  <rect class="st2" x="448.5" y="570.5" width="61" height="61"/>
  <rect class="st0" x="387.5" y="570.5" width="61" height="61"/>
  <rect class="st2" x="326.5" y="570.5" width="61" height="61"/>
  <rect class="st8" x="265.5" y="570.5" width="61" height="61"/>
  <rect class="st8" x="204.5" y="570.5" width="61" height="61"/>
  <rect class="st8" x="143.6" y="570.5" width="61" height="61"/>
  <rect class="st3" x="82.6" y="570.5" width="61" height="61"/>
  <rect class="st3" x="936.4" y="509.5" width="61" height="61"/>
  <rect class="st8" x="875.5" y="509.5" width="61" height="61"/>
  <rect class="st7" x="814.5" y="509.5" width="61" height="61"/>
  <rect class="st7" x="753.5" y="509.5" width="61" height="61"/>
  <rect class="st7" x="692.5" y="509.5" width="61" height="61"/>
  <rect class="st7" x="631.5" y="509.5" width="61" height="61"/>
  <rect class="st7" x="570.5" y="509.5" width="61" height="61"/>
  <rect class="st7" x="509.5" y="509.5" width="61" height="61"/>
  <rect class="st8" x="448.5" y="509.5" width="61" height="61"/>
  <rect class="st8" x="387.5" y="509.5" width="61" height="61"/>
  <rect class="st8" x="326.5" y="509.5" width="61" height="61"/>
  <rect class="st7" x="265.5" y="509.5" width="61" height="61"/>
  <rect class="st7" x="204.5" y="509.5" width="61" height="61"/>
  <rect class="st8" x="143.6" y="509.5" width="61" height="61"/>
  <rect class="st3" x="82.6" y="509.5" width="61" height="61"/>
  <rect class="st3" x="936.4" y="448.5" width="61" height="61"/>
  <rect class="st7" x="875.5" y="448.5" width="61" height="61"/>
  <rect class="st7" x="814.5" y="448.5" width="61" height="61"/>
  <rect class="st7" x="753.5" y="448.5" width="61" height="61"/>
  <rect class="st7" x="692.5" y="448.5" width="61" height="61"/>
  <rect class="st7" x="631.5" y="448.5" width="61" height="61"/>
  <rect class="st6" x="570.5" y="448.5" width="61" height="61"/>
  <rect class="st6" x="509.5" y="448.5" width="61" height="61"/>
  <rect class="st1" x="448.5" y="448.5" width="61" height="61"/>
  <rect class="st1" x="387.5" y="448.5" width="61" height="61"/>
  <rect class="st6" x="326.5" y="448.5" width="61" height="61"/>
  <rect class="st6" x="265.5" y="448.5" width="61" height="61"/>
  <rect class="st6" x="204.5" y="448.5" width="61" height="61"/>
  <rect class="st7" x="143.6" y="448.5" width="61" height="61"/>
  <rect class="st3" x="82.6" y="448.5" width="61" height="61"/>
  <rect class="st3" x="936.4" y="387.5" width="61" height="61"/>
  <rect class="st7" x="875.5" y="387.5" width="61" height="61"/>
  <rect class="st7" x="814.5" y="387.5" width="61" height="61"/>
  <rect class="st7" x="753.5" y="387.5" width="61" height="61"/>
  <rect class="st6" x="692.5" y="387.5" width="61" height="61"/>
  <rect class="st6" x="631.5" y="387.5" width="61" height="61"/>
  <rect class="st6" x="570.5" y="387.5" width="61" height="61"/>
  <rect class="st1" x="509.5" y="387.5" width="61" height="61"/>
  <rect class="st4" x="448.5" y="387.5" width="61" height="61"/>
  <rect class="st4" x="387.5" y="387.5" width="61" height="61"/>
  <rect class="st1" x="326.5" y="387.5" width="61" height="61"/>
  <rect class="st6" x="265.5" y="387.5" width="61" height="61"/>
  <rect class="st6" x="204.5" y="387.5" width="61" height="61"/>
  <rect class="st7" x="143.6" y="387.5" width="61" height="61"/>
  <rect class="st3" x="82.6" y="387.5" width="61" height="61"/>
  <rect class="st3" x="875.5" y="326.5" width="61" height="61"/>
  <rect class="st7" x="814.5" y="326.5" width="61" height="61"/>
  <rect class="st6" x="753.5" y="326.5" width="61" height="61"/>
  <rect class="st6" x="692.5" y="326.5" width="61" height="61"/>
  <rect class="st6" x="631.5" y="326.5" width="61" height="61"/>
  <rect class="st1" x="570.5" y="326.5" width="61" height="61"/>
  <rect class="st4" x="509.5" y="326.5" width="61" height="61"/>
  <rect class="st4" x="448.5" y="326.5" width="61" height="61"/>
  <rect class="st1" x="387.5" y="326.5" width="61" height="61"/>
  <rect class="st0" x="326.5" y="326.5" width="61" height="61"/>
  <rect class="st1" x="265.5" y="326.5" width="61" height="61"/>
  <rect class="st6" x="204.5" y="326.5" width="61" height="61"/>
  <rect class="st3" x="143.6" y="326.5" width="61" height="61"/>
  <rect class="st3" x="875.5" y="265.5" width="61" height="61"/>
  <rect class="st7" x="814.5" y="265.5" width="61" height="61"/>
  <rect class="st6" x="753.5" y="265.5" width="61" height="61"/>
  <rect class="st6" x="692.5" y="265.5" width="61" height="61"/>
  <rect class="st1" x="631.5" y="265.5" width="61" height="61"/>
  <rect class="st4" x="570.5" y="265.5" width="61" height="61"/>
  <rect class="st4" x="509.5" y="265.5" width="61" height="61"/>
  <rect class="st4" x="448.5" y="265.5" width="61" height="61"/>
  <rect class="st1" x="387.5" y="265.5" width="61" height="61"/>
  <rect class="st0" x="326.5" y="265.5" width="61" height="61"/>
  <rect class="st0" x="265.5" y="265.5" width="61" height="61"/>
  <rect class="st6" x="204.5" y="265.5" width="61" height="61"/>
  <rect class="st3" x="143.6" y="265.5" width="61" height="61"/>
  <rect class="st3" x="814.5" y="204.5" width="61" height="61"/>
  <rect class="st7" x="753.5" y="204.5" width="61" height="61"/>
  <rect class="st6" x="692.5" y="204.5" width="61" height="61"/>
  <rect class="st1" x="631.5" y="204.5" width="61" height="61"/>
  <rect class="st4" x="570.5" y="204.5" width="61" height="61"/>
  <rect class="st4" x="509.5" y="204.5" width="61" height="61"/>
  <rect class="st1" x="448.5" y="204.5" width="61" height="61"/>
  <rect class="st4" x="387.5" y="204.5" width="61" height="61"/>
  <rect class="st1" x="326.5" y="204.5" width="61" height="61"/>
  <rect class="st1" x="265.5" y="204.5" width="61" height="61"/>
  <rect class="st3" x="204.5" y="204.5" width="61" height="61"/>
  <rect class="st3" x="753.5" y="143.6" width="61" height="61"/>
  <rect class="st3" x="692.5" y="143.6" width="61" height="61"/>
  <rect class="st6" x="631.5" y="143.6" width="61" height="61"/>
  <rect class="st1" x="570.5" y="143.6" width="61" height="61"/>
  <rect class="st1" x="509.5" y="143.6" width="61" height="61"/>
  <rect class="st6" x="448.5" y="143.6" width="61" height="61"/>
  <rect class="st1" x="387.5" y="143.6" width="61" height="61"/>
  <rect class="st7" x="326.5" y="143.6" width="61" height="61"/>
  <rect class="st3" x="265.5" y="143.6" width="61" height="61"/>
  <rect class="st3" x="631.5" y="82.6" width="61" height="61"/>
  <rect class="st3" x="570.5" y="82.6" width="61" height="61"/>
  <rect class="st3" x="509.5" y="82.6" width="61" height="61"/>
  <rect class="st3" x="448.5" y="82.6" width="61" height="61"/>
  <rect class="st3" x="387.5" y="82.6" width="61" height="61"/>
</svg>
